<?xml version="1.0" encoding="UTF-8"?>
<svg version="1.1" xmlns="http://www.w3.org/2000/svg" width="949" height="203">
<path d="M0 0 C7.82459171 -0.10242342 15.64900707 -0.17188994 23.47412109 -0.21972656 C26.12972034 -0.2374118 28.78442635 -0.26687312 31.43994141 -0.30175781 C51.2154503 -0.55481288 68.18725749 -0.69132248 85 11 C85.97839844 11.65742187 85.97839844 11.65742187 86.9765625 12.328125 C97.38558638 20.21807005 103.92071209 33.52891012 106.3125 46.0625 C108.86569591 65.63700197 104.42697962 86.63671471 92.73632812 102.74072266 C78.44352999 120.72352625 58.3133712 129.21257577 36 132 C33.80856149 132.08149991 31.61506818 132.11793776 29.42211914 132.11352539 C28.16134048 132.11344986 26.90056183 132.11337433 25.60157776 132.11329651 C24.24610351 132.1081915 22.89062967 132.10297553 21.53515625 132.09765625 C20.13268586 132.09578854 18.73021481 132.0943663 17.32774353 132.09336853 C13.6567908 132.08957116 9.98587835 132.07976496 6.31494141 132.06866455 C2.56087794 132.05839031 -1.19319211 132.05385809 -4.94726562 132.04882812 C-12.29819534 132.03813991 -19.649092 132.02109732 -27 132 C-25.89184084 123.79962224 -24.38318475 115.92806125 -22 108 C-21.36487991 107.99191315 -20.72975983 107.98382629 -20.07539368 107.97549438 C-13.40676371 107.88878586 -6.73840864 107.78926168 -0.07006836 107.68261719 C2.41165515 107.64456334 4.89342939 107.6096714 7.37524414 107.578125 C10.96258564 107.53195773 14.54958484 107.47405318 18.13671875 107.4140625 C19.22893234 107.40251129 20.32114594 107.39096008 21.44645691 107.37905884 C38.17527726 107.06551215 53.81957602 104.37041326 66 92 C74.37119507 81.5560906 78.83539034 68.6213915 77.78125 55.21875 C76.37738408 45.60766794 72.8566422 37.61031376 65.1796875 31.46875 C55.97233182 25.26451033 46.85072633 24.84689692 36.0390625 24.68359375 C34.89335785 24.66281265 33.7476532 24.64203156 32.56723022 24.62062073 C28.91987914 24.55541782 25.27245816 24.49637648 21.625 24.4375 C19.14712829 24.39428695 16.66926356 24.35067178 14.19140625 24.30664062 C8.1276773 24.19976648 2.06387937 24.09794651 -4 24 C-3.71210612 21.87448558 -3.41945627 19.74961525 -3.125 17.625 C-2.96257813 16.44164063 -2.80015625 15.25828125 -2.6328125 14.0390625 C-1.93782627 9.3242953 -0.96721887 4.66519924 0 0 Z " fill="#2FA4FF" transform="translate(35,36)"/>
<path d="M0 0 C8.30328065 5.57173412 12.42609406 13.65635006 15.08984375 23.1015625 C16.82972838 32.24584252 16.34070922 40.74306459 13.77734375 49.71484375 C-14.93265625 50.20984375 -14.93265625 50.20984375 -44.22265625 50.71484375 C-40.15433941 59.17356236 -40.15433941 59.17356236 -32.9296875 62.87109375 C-24.67563886 65.44378423 -17.23350055 63.18464079 -9.22265625 60.71484375 C-7.89172911 60.37202918 -6.55921571 60.03499637 -5.22265625 59.71484375 C-1.95179835 65.90749567 0.78121107 71.99615325 2.77734375 78.71484375 C-6.29447729 85.97230058 -16.68395417 87.08401738 -27.91015625 87.15234375 C-28.87171631 87.16233398 -29.83327637 87.17232422 -30.82397461 87.18261719 C-42.46487556 87.04290642 -53.2982529 83.48980903 -61.97265625 75.52734375 C-69.89921189 67.0490557 -72.74971761 56.08595812 -72.46484375 44.72265625 C-71.3780373 31.22522135 -66.72700631 15.97777062 -56.22265625 6.71484375 C-40.14057918 -6.17284815 -18.5903438 -10.74907401 0 0 Z M-40.19140625 26.03125 C-41.48382128 27.81216106 -41.48382128 27.81216106 -41.22265625 30.71484375 C-30.66265625 30.71484375 -20.10265625 30.71484375 -9.22265625 30.71484375 C-10.1861015 23.247973 -10.1861015 23.247973 -15.22265625 18.71484375 C-25.00725144 13.30756746 -33.76743685 18.36007378 -40.19140625 26.03125 Z " fill="#ffffff" transform="translate(420.22265625,82.28515625)"/>
<path d="M0 0 C6.6 0 13.2 0 20 0 C21.12792969 2.97128906 22.25585938 5.94257812 23.41796875 9.00390625 C32.38302813 32.61466076 41.36536317 56.21872461 50.375 79.8125 C51.0458815 81.56954758 51.0458815 81.56954758 51.73031616 83.36209106 C52.60072371 85.64151605 53.47128866 87.92088094 54.34202576 90.20018005 C55.15653074 92.33274417 55.97048621 94.46551826 56.78382874 96.598526 C58.40793952 100.85440217 60.03558794 105.10805721 61.70800781 109.34521484 C62.16788086 110.51391113 62.62775391 111.68260742 63.1015625 112.88671875 C63.47877441 113.83119873 63.85598633 114.77567871 64.24462891 115.7487793 C65 118 65 118 65 121 C59.39 121 53.78 121 48 121 C38 97.28571429 38 97.28571429 38 94 C19.52 94 1.04 94 -18 94 C-18.99 97.3 -19.98 100.6 -21 104 C-22.01472227 106.86999806 -23.04397706 109.71870347 -24.125 112.5625 C-24.38925781 113.27212891 -24.65351562 113.98175781 -24.92578125 114.71289062 C-26.8702957 119.8702957 -26.8702957 119.8702957 -28 121 C-30.86267567 121.07325168 -33.700719 121.09238205 -36.5625 121.0625 C-37.36880859 121.05798828 -38.17511719 121.05347656 -39.00585938 121.04882812 C-41.00393756 121.03700518 -43.00197783 121.01906914 -45 121 C-44.35741465 115.68767861 -42.67601482 111.11445938 -40.73828125 106.171875 C-40.39968582 105.29405869 -40.06109039 104.41624237 -39.7122345 103.51182556 C-38.97298876 101.59696977 -38.23117881 99.68310241 -37.48712158 97.77011108 C-35.45290244 92.53985831 -33.43705121 87.30251647 -31.41796875 82.06640625 C-30.98734131 80.9513118 -30.55671387 79.83621735 -30.11303711 78.68733215 C-26.72876304 69.91618259 -23.38148475 61.13143337 -20.05078125 52.33984375 C-19.80326677 51.68656979 -19.5557523 51.03329582 -19.30073738 50.36022568 C-17.09165505 44.52876116 -14.8849118 38.69641212 -12.67861938 32.8638916 C-11.31007037 29.2461648 -9.94014238 25.62896075 -8.5703125 22.01171875 C-8.16682083 20.94372543 -7.76332916 19.87573212 -7.34761047 18.77537537 C-4.9663915 12.48823913 -2.51538146 6.23472149 0 0 Z M9 19 C6.1257012 26.5082234 3.25676297 34.01846328 0.39466858 41.53134632 C-0.93444706 45.01971459 -2.26540657 48.50735586 -3.60058594 51.9934082 C-4.88874378 55.35689381 -6.17204993 58.72219313 -7.45199585 62.08881187 C-7.94146954 63.37369428 -8.43269555 64.65791054 -8.9256897 65.9414463 C-9.61523445 67.73759969 -10.29801021 69.5363473 -10.98046875 71.33520508 C-11.37129639 72.35890701 -11.76212402 73.38260895 -12.16479492 74.43733215 C-13.15493527 77.02616678 -13.15493527 77.02616678 -13 80 C2.18 80 17.36 80 33 80 C30.6275008 72.00910612 30.6275008 72.00910612 27.9152832 64.18310547 C27.34503166 62.65265091 27.34503166 62.65265091 26.76325989 61.09127808 C26.16308296 59.49535324 26.16308296 59.49535324 25.55078125 57.8671875 C25.13330124 56.74933868 24.71582123 55.63148987 24.28569031 54.47976685 C22.96430607 50.94370915 21.63847877 47.40933702 20.3125 43.875 C19.41051205 41.46365208 18.50881642 39.0521948 17.60742188 36.640625 C15.40832618 30.75914793 13.20558975 24.87904463 11 19 C10.34 19 9.68 19 9 19 Z " fill="#ffffff" transform="translate(609,46)"/>
<path d="M0 0 C9.24 0 18.48 0 28 0 C29.33794706 6.68973531 30.49832269 13.19753215 31.2890625 19.9453125 C31.39721283 20.84120087 31.50536316 21.73708923 31.61679077 22.66012573 C31.95652095 25.48132575 32.290857 28.30313337 32.625 31.125 C32.8564121 33.05473055 33.08817979 34.9844185 33.3203125 36.9140625 C33.88431411 41.60889322 34.44348392 46.30427633 35 51 C37.53230459 47.8099602 39.48686059 44.46858103 41.44140625 40.8984375 C41.765681 40.30831375 42.08995575 39.71819 42.42405701 39.11018372 C43.47299471 37.19997114 44.51773793 35.287499 45.5625 33.375 C46.28156274 32.06402337 47.00096519 30.75323302 47.72070312 29.44262695 C48.79829711 27.48020867 49.87564865 25.51766146 50.95181274 23.55445862 C53.94838332 18.08793926 56.96787382 12.63437968 60 7.1875 C61.32 4.815625 62.64 2.44375 64 0 C73.9 0 83.8 0 94 0 C92.56570577 4.30288269 91.46049032 7.23755156 89.234375 10.9921875 C88.68144775 11.93175293 88.12852051 12.87131836 87.55883789 13.83935547 C86.96192139 14.84111816 86.36500488 15.84288086 85.75 16.875 C84.47253211 19.04159347 83.19519184 21.2082622 81.91796875 23.375 C81.26489746 24.4784375 80.61182617 25.581875 79.93896484 26.71875 C76.96037757 31.75932075 74.01096047 36.81676723 71.0625 41.875 C70.4950708 42.84679199 69.9276416 43.81858398 69.34301758 44.81982422 C66.20005395 50.20688061 63.07204118 55.60229705 59.9609375 61.0078125 C59.62390305 61.59319794 59.28686859 62.17858337 58.93962097 62.78170776 C57.31112885 65.61085721 55.6845761 68.44109507 54.06079102 71.27294922 C52.90185587 73.28875072 51.72688031 75.29544454 50.53344727 77.29101562 C48.97134205 79.90996159 48.97134205 79.90996159 47.99584961 82.50585938 C46.90022629 84.99913825 46.17483652 86.34165449 44 88 C38.86577884 88.98459146 33.87204772 88.75340037 28.6875 88.5 C27.26507351 88.45984499 25.84253875 88.42334764 24.41992188 88.390625 C20.94435605 88.30272435 17.47286418 88.16484613 14 88 C10.63085672 68.64101142 7.35376965 49.2672396 4.16967773 29.87692261 C3.80667676 27.66802264 3.44258233 25.4593021 3.07739258 23.25076294 C2.56136691 20.12733379 2.0496085 17.00323516 1.5390625 13.87890625 C1.38309601 12.93869629 1.22712952 11.99848633 1.06643677 11.02978516 C0.85493484 9.72642212 0.85493484 9.72642212 0.63916016 8.39672852 C0.51513824 7.64069839 0.39111633 6.88466827 0.26333618 6.10572815 C0 4 0 4 0 0 Z " fill="#ffffff" transform="translate(265,79)"/>
<path d="M0 0 C4.62 0 9.24 0 14 0 C16.72277927 6.86527093 18.75800406 13.85533603 20.7578125 20.9609375 C21.1063327 22.18785309 21.45485291 23.41476868 21.81393433 24.67886353 C22.73317805 27.9159984 23.64975898 31.1538594 24.56469727 34.39221191 C25.85945721 38.97408247 27.15718584 43.55510601 28.45748901 48.13540649 C29.14846076 50.56985875 29.83742117 53.00488293 30.52420044 55.44052124 C30.83477386 56.53571075 31.14534729 57.63090027 31.46533203 58.75927734 C31.73830109 59.72554047 32.01127014 60.69180359 32.29251099 61.68734741 C32.92876187 63.99585346 32.92876187 63.99585346 34 66 C34.24834091 65.20264435 34.49668182 64.4052887 34.75254822 63.58377075 C37.09039978 56.07862599 39.42988437 48.57399269 41.77121639 41.06993294 C42.97493015 37.21178001 44.17800593 33.35343053 45.37963867 29.49462891 C46.53876171 25.7724205 47.69954098 22.05073238 48.86148262 18.32940292 C49.30504249 16.90778986 49.74799981 15.48598865 50.19035149 14.06399918 C50.80883113 12.0761853 51.42942744 10.08904419 52.05053711 8.10205078 C52.40361435 6.96953888 52.75669159 5.83702698 53.12046814 4.67019653 C54 2 54 2 55 0 C58.96 0 62.92 0 67 0 C70.14736541 7.55984829 72.72116048 15.17801074 75.109375 23.0078125 C75.48104797 24.2144455 75.85272095 25.42107849 76.23565674 26.66427612 C77.21185112 29.83612381 78.18443859 33.00904626 79.1552124 36.18255615 C80.15117593 39.43515125 81.15197754 42.68625687 82.15234375 45.9375 C84.10596945 52.29031989 86.05483852 58.64458368 88 65 C89.73436473 61.8110116 90.77760385 58.64883265 91.77172852 55.16162109 C92.10870255 53.98715424 92.44567657 52.81268738 92.79286194 51.60263062 C93.15125656 50.33899689 93.50965118 49.07536316 93.87890625 47.7734375 C94.25439712 46.46103683 94.6302932 45.14875204 95.00657654 43.83657837 C95.9942483 40.38925107 96.9775504 36.94069433 97.95959473 33.49176025 C99.53398868 27.96416795 101.11369246 22.43809738 102.69590569 16.9127388 C103.24783208 14.98218402 103.79697403 13.0508339 104.34608459 11.11947632 C104.67990646 9.95131378 105.01372833 8.78315125 105.35766602 7.57958984 C105.65141617 6.54796722 105.94516632 5.5163446 106.24781799 4.45346069 C107 2 107 2 108 0 C112.95 0 117.9 0 123 0 C117.96798698 17.89203393 112.64588513 35.69547283 107.31677246 53.50061035 C106.149048 57.403122 104.98279803 61.30607425 103.81640625 65.20898438 C101.54567473 72.80641002 99.27323255 80.40332232 97 88 C92.05 88 87.1 88 82 88 C77.34046349 73.6239594 72.78964142 59.2150774 68.32189941 44.77835083 C67.77380079 43.00891539 67.22423898 41.23993253 66.67321777 39.47140503 C65.89251994 36.96398761 65.11740192 34.45491149 64.34375 31.9453125 C64.10662292 31.18695602 63.86949585 30.42859955 63.62518311 29.64726257 C62.70923721 26.65780645 62 24.14599579 62 21 C61.34 21 60.68 21 60 21 C59.9175 21.87543457 59.835 22.75086914 59.75 23.65283203 C58.86672629 29.78380203 56.81844055 35.65117004 55 41.5546875 C54.59989789 42.86497114 54.20016419 44.17536733 53.80078125 45.48587036 C52.96679201 48.21847579 52.12928768 50.94996979 51.2890625 53.68066406 C50.2105854 57.18622605 49.13961319 60.69402613 48.07104492 64.20261955 C47.24825293 66.90216056 46.42226487 69.60071479 45.59521484 72.29895401 C45.19886693 73.59293476 44.80335699 74.88717248 44.40869141 76.18166733 C43.8589483 77.98259168 43.30459218 79.78210596 42.75 81.58154297 C42.43546875 82.60633759 42.1209375 83.6311322 41.796875 84.6869812 C41 87 41 87 40 88 C37.64686445 88.07271741 35.29166332 88.08370868 32.9375 88.0625 C31.00197266 88.04896484 31.00197266 88.04896484 29.02734375 88.03515625 C28.02832031 88.02355469 27.02929688 88.01195312 26 88 C23.99396509 82.77000396 22.16895125 77.53929242 20.5480957 72.17871094 C20.3233255 71.44269653 20.0985553 70.70668213 19.86697388 69.94836426 C19.13378884 67.54453954 18.40452412 65.13954983 17.67578125 62.734375 C17.16447306 61.05143144 16.65309394 59.36850942 16.14164734 57.68560791 C15.07487556 54.17281321 14.01029615 50.65936252 12.94702148 47.14550781 C11.58401802 42.64245142 10.2134716 38.14172907 8.84104633 33.64153671 C7.78467085 30.17345503 6.73331441 26.70386696 5.68337059 23.23383331 C5.18 21.57310008 4.6748249 19.91291267 4.16781044 18.25328827 C3.46118246 15.93831825 2.76158829 13.62133442 2.0637207 11.30371094 C1.74818993 10.27815094 1.74818993 10.27815094 1.42628479 9.23187256 C0.44754963 5.95504264 0 3.46577254 0 0 Z " fill="#ffffff" transform="translate(660,79)"/>
<path d="M0 0 C9.24 0 18.48 0 28 0 C26.84254224 7.52347547 25.74244847 14.65682429 24 22 C29.28 22.33 34.56 22.66 40 23 C39.35215814 28.94650633 38.28016565 34.67387483 36.9375 40.5 C36.75123047 41.32242188 36.56496094 42.14484375 36.37304688 42.9921875 C35.91879115 44.9955717 35.45988401 46.9979003 35 49 C29.39 49 23.78 49 18 49 C17.18305779 53.14500201 16.37131863 57.29091192 15.5625 61.4375 C15.33240234 62.60216797 15.10230469 63.76683594 14.86523438 64.96679688 C11.92273312 76.02113844 11.92273312 76.02113844 13.4375 86.625 C17.26629088 88.67947315 19.78775062 87.84244988 24 87 C24.6466598 95.01396246 25.16677223 102.95787245 25 111 C19.66391357 114.29247886 15.26483522 114.48742583 9.1875 114.4375 C8.33607422 114.45748047 7.48464844 114.47746094 6.60742188 114.49804688 C-1.60804787 114.49178985 -9.09739864 111.90260136 -15 106 C-21.66617583 94.63460045 -17.23756188 80.41471425 -14.5625 68.3125 C-14.23246306 66.76394007 -13.90368025 65.2151123 -13.57617188 63.66601562 C-11.24552637 52.73657912 -11.24552637 52.73657912 -10 49 C-14.29 49 -18.58 49 -23 49 C-22.43819394 40.01110303 -20.31161634 31.66587335 -18 23 C-13.38 23 -8.76 23 -4 23 C-3.896875 21.80375 -3.79375 20.6075 -3.6875 19.375 C-2.97350054 12.812505 -1.43722429 6.4362653 0 0 Z " fill="#ffffff" transform="translate(518,55)"/>
<path d="M0 0 C1.25159912 0.00523682 2.50319824 0.01047363 3.79272461 0.01586914 C4.78942421 0.01799156 4.78942421 0.01799156 5.80625916 0.02015686 C7.93590735 0.02577021 10.06545175 0.03832485 12.19506836 0.05102539 C13.63582205 0.05603868 15.07657739 0.06060188 16.51733398 0.06469727 C20.05577938 0.07574394 23.59416375 0.09301747 27.13256836 0.11352539 C26.48471328 6.92793937 25.33843775 13.50721816 23.92358398 20.20117188 C23.70071213 21.27216629 23.47784027 22.34316071 23.24821472 23.4466095 C22.51590086 26.96016112 21.77751943 30.47240531 21.03881836 33.98461914 C20.52668875 36.43313155 20.01485226 38.88170529 19.5032959 41.33033752 C18.2966096 47.10115686 17.08578065 52.87109589 15.87329149 58.64069849 C14.76790432 63.90247842 13.66763269 69.16531734 12.56872988 74.42845482 C11.37801046 80.1309201 10.18410627 85.83271379 8.98869324 91.53419685 C8.48078664 93.95784011 7.97363428 96.38164156 7.46723938 98.80560112 C6.76142769 102.18153209 6.05201142 105.556685 5.34155273 108.93164062 C5.13165207 109.93889191 4.9217514 110.94614319 4.70549011 111.98391724 C4.41530754 113.35686699 4.41530754 113.35686699 4.1192627 114.7575531 C3.9518734 115.55519797 3.7844841 116.35284285 3.6120224 117.17465878 C3.13256836 119.11352539 3.13256836 119.11352539 2.13256836 121.11352539 C-7.76743164 121.11352539 -17.66743164 121.11352539 -27.86743164 121.11352539 C-26.74240069 109.8632159 -26.74240069 109.8632159 -25.8807373 105.74168396 C-25.68728226 104.80382553 -25.49382721 103.8659671 -25.29450989 102.89968872 C-25.08460922 101.90863129 -24.87470856 100.91757385 -24.65844727 99.89648438 C-24.43557541 98.82373764 -24.21270355 97.75099091 -23.983078 96.64573669 C-23.25176134 93.13260027 -22.5129403 89.6210922 -21.77368164 86.10961914 C-21.26149343 83.66015257 -20.7496579 81.21061223 -20.23815918 78.76100159 C-19.03228192 72.99239374 -17.82123706 67.22488791 -16.60815477 61.45779139 C-15.50165638 56.19502916 -14.40176273 50.93090411 -13.30359316 45.66639847 C-12.1137809 39.96320268 -10.91966731 34.26091605 -9.72355652 28.55903816 C-9.21534973 26.13463124 -8.70819817 23.71000288 -8.20210266 21.28515434 C-7.49725594 17.91131463 -6.78753929 14.53853714 -6.07641602 11.16601562 C-5.86651535 10.15674011 -5.65661469 9.1474646 -5.44035339 8.10760498 C-5.24689835 7.19512497 -5.0534433 6.28264496 -4.85412598 5.34251404 C-4.68673668 4.54524619 -4.51934738 3.74797834 -4.34688568 2.92655087 C-3.5566466 -0.06168882 -3.22638884 0.12773698 0 0 Z " fill="#ffffff" transform="translate(467.867431640625,45.886474609375)"/>
<path d="M0 0 C7.07744986 4.66311511 11.58029052 9.02520171 14.00390625 17.3203125 C14.54296249 22.72216097 14.4714271 28.09220958 14.39453125 33.51171875 C14.38705786 35.06826547 14.38137012 36.62482168 14.37738037 38.18138123 C14.36221019 42.25040303 14.32300479 46.31884094 14.27856445 50.38763428 C14.23742401 54.55066025 14.21932955 58.71378185 14.19921875 62.87695312 C14.15650023 71.02503556 14.08622303 79.17253381 14.00390625 87.3203125 C9.71390625 87.3203125 5.42390625 87.3203125 1.00390625 87.3203125 C0.50890625 83.8553125 0.50890625 83.8553125 0.00390625 80.3203125 C-0.55296875 80.71863281 -1.10984375 81.11695313 -1.68359375 81.52734375 C-2.44671875 82.05714844 -3.20984375 82.58695312 -3.99609375 83.1328125 C-4.73859375 83.65488281 -5.48109375 84.17695313 -6.24609375 84.71484375 C-12.6977712 88.48137704 -18.48865824 89.85780844 -25.93359375 89.7578125 C-26.72483643 89.75023926 -27.5160791 89.74266602 -28.33129883 89.73486328 C-34.2779179 89.5668693 -39.01099289 88.75091954 -43.99609375 85.3203125 C-44.62644531 84.9078125 -45.25679687 84.4953125 -45.90625 84.0703125 C-51.04713439 80.22829275 -54.26979929 75.49542749 -55.99609375 69.3203125 C-57.23234267 60.46649569 -57.3366679 51.10268444 -52.53515625 43.296875 C-47.66256107 37.03917662 -41.772851 33.12273801 -33.99609375 31.3203125 C-21.03178691 30.01856858 -10.33021409 32.05301623 0.00390625 40.3203125 C0.55015963 27.89718491 0.55015963 27.89718491 -3.74609375 16.5078125 C-8.54176379 11.84535552 -13.71402127 10.57772995 -20.18359375 10.0703125 C-29.07617744 10.65343274 -35.24960152 13.66386486 -41.99609375 19.3203125 C-43.3243767 20.32701116 -44.65641369 21.32883122 -45.99609375 22.3203125 C-47.03221646 20.91478951 -48.049543 19.49539556 -49.05859375 18.0703125 C-49.62707031 17.28140625 -50.19554687 16.4925 -50.78125 15.6796875 C-51.99609375 13.3203125 -51.99609375 13.3203125 -51.9296875 11.2421875 C-48.68660769 4.56605667 -39.66465907 0.69192464 -32.99609375 -1.6796875 C-23.42531215 -4.44198109 -8.92006316 -4.56375325 0 0 Z M-36.99609375 47.3203125 C-41.56316883 52.38112543 -42.30903837 56.19019051 -42.203125 62.82421875 C-41.77133835 68.03009927 -39.44226557 71.1150148 -35.74609375 74.5703125 C-30.39725402 78.86286876 -24.75579299 79.89316837 -17.99609375 79.3203125 C-11.29309227 78.19385135 -5.62327007 75.7721545 -0.6796875 71.03125 C2.9142348 65.24428462 2.4134486 58.73708626 1.00390625 52.3203125 C-1.1319587 48.94118287 -3.50695515 47.20050203 -6.99609375 45.3203125 C-8.69765625 44.3921875 -8.69765625 44.3921875 -10.43359375 43.4453125 C-20.31350336 40.32534104 -28.66938326 40.69679279 -36.99609375 47.3203125 Z " fill="#ffffff" transform="translate(844.99609375,79.6796875)"/>
<path d="M0 0 C5.28 0 10.56 0 16 0 C16.60996826 1.59803467 17.21993652 3.19606934 17.84838867 4.8425293 C19.88383001 10.17499469 21.91942457 15.50740158 23.95511913 20.83977032 C25.18704335 24.0667315 26.41890968 27.29371476 27.65063477 30.52075195 C29.07289755 34.246977 30.49542821 37.97309973 31.91796875 41.69921875 C32.56828316 43.40316048 32.56828316 43.40316048 33.23173523 45.14152527 C36.14271267 52.76556366 39.06711657 60.38436234 42 68 C47.24280797 57.14812182 51.29161165 45.84435039 55.5 34.5625 C56.98684515 30.58360509 58.47618225 26.60565811 59.96875 22.62890625 C60.32195313 21.68777985 60.67515625 20.74665344 61.0390625 19.77700806 C63.55009087 13.11767494 66.19406519 6.54161389 69 0 C73.95 0 78.9 0 84 0 C83.16775498 4.99347013 81.9648928 9.04284925 80.0703125 13.6484375 C79.76813309 14.39758926 79.46595367 15.14674103 79.15461731 15.91859436 C78.49625072 17.5490011 77.83513769 19.1783009 77.17160034 20.80661011 C75.73626121 24.32897712 74.3139159 27.85654192 72.89103699 31.38395691 C72.12947113 33.27191705 71.36725996 35.159617 70.60444641 37.04707336 C65.57717556 49.49746799 60.66146661 61.99215791 55.7366333 74.4833374 C53.50963798 80.13043145 51.27605433 85.77479857 49.0289917 91.41394043 C48.34966565 93.12122108 47.67273585 94.82945739 46.99835205 96.53869629 C46.07051764 98.88707838 45.13245212 101.2311053 44.19140625 103.57421875 C43.92537094 104.2534288 43.65933563 104.93263885 43.38523865 105.63243103 C40.43240277 112.91273976 36.33930302 118.05713279 29.5625 122 C22.09637455 124.09575451 15.64989526 124.09284218 8 123 C8.14133499 121.22880197 8.28823208 119.45804713 8.4375 117.6875 C8.51871094 116.70136719 8.59992187 115.71523437 8.68359375 114.69921875 C9 112 9 112 10 109 C10.80824219 109.04640625 11.61648438 109.0928125 12.44921875 109.140625 C13.51785156 109.17671875 14.58648438 109.2128125 15.6875 109.25 C16.74324219 109.29640625 17.79898438 109.3428125 18.88671875 109.390625 C22.85021302 108.89332333 24.2242562 107.8536112 27 105 C28.64220199 102.57552316 29.91795769 100.41057346 31.1875 97.8125 C31.54908203 97.20986328 31.91066406 96.60722656 32.28320312 95.98632812 C34.44159945 91.50487432 34.05278479 88.20853008 32.51635742 83.51734924 C31.42081228 80.49655628 30.2456202 77.51377993 29.03268433 74.53829956 C27.94697983 71.86967839 26.89930833 69.1883073 25.85766602 66.50219727 C23.50134244 60.44624459 21.09635247 54.41020983 18.6875 48.375 C17.06531771 44.29991195 15.44473065 40.22419005 13.82421875 36.1484375 C13.42870819 35.15406677 13.03319763 34.15969604 12.6257019 33.13519287 C9.70038208 25.77567191 6.78929715 18.4106565 3.89453125 11.0390625 C3.30680183 9.54746109 3.30680183 9.54746109 2.7071991 8.02572632 C2.35112076 7.11698761 1.99504242 6.2082489 1.62817383 5.27197266 C1.31278152 4.46877594 0.99738922 3.66557922 0.67243958 2.83804321 C0 1 0 1 0 0 Z " fill="#ffffff" transform="translate(865,79)"/>
<path d="M0 0 C-0.61722584 9.56700056 -2.8201341 18.69247957 -5 28 C-5.73863281 27.88140625 -6.47726563 27.7628125 -7.23828125 27.640625 C-14.97088042 26.65808381 -21.08122746 27.21060649 -28 31 C-31.38610314 33.88208945 -32.59806722 35.97755308 -33.4921875 40.3125 C-33.7195459 41.37557373 -33.9469043 42.43864746 -34.18115234 43.53393555 C-34.41012207 44.67773682 -34.6390918 45.82153809 -34.875 47 C-35.12330566 48.17796143 -35.37161133 49.35592285 -35.62744141 50.56958008 C-36.1547267 53.07459846 -36.6758711 55.58091597 -37.19140625 58.08837891 C-38.26031682 63.25929832 -39.37464503 68.41979771 -40.49023438 73.58081055 C-41.66897081 79.05198207 -42.83302015 84.52630879 -44 90 C-53.24 90 -62.48 90 -72 90 C-69.70235905 76.21415432 -69.70235905 76.21415432 -68.30419922 69.66113281 C-68.06967545 68.54659729 -68.06967545 68.54659729 -67.83041382 67.4095459 C-67.32423192 65.0068932 -66.81450754 62.60500809 -66.3046875 60.203125 C-65.94860022 58.51638389 -65.59273867 56.8295951 -65.23709106 55.14276123 C-64.30886238 50.74313545 -63.3776065 46.344156 -62.44567871 41.9453125 C-61.49187379 37.44049697 -60.54098848 32.9350653 -59.58984375 28.4296875 C-57.72938949 19.61919195 -55.8654607 10.80943689 -54 2 C-44.76 2 -35.52 2 -26 2 C-26 4.31 -26 6.62 -26 9 C-25.5153125 8.60167969 -25.030625 8.20335938 -24.53125 7.79296875 C-16.47606973 1.42627819 -10.27047229 -0.56824334 0 0 Z " fill="#ffffff" transform="translate(217,77)"/>
<path d="M0 0 C8.91 0 17.82 0 27 0 C26.37817138 6.21828619 25.73422056 12.03315643 24.43359375 18.08007812 C24.27899689 18.81959717 24.12440002 19.55911621 23.96511841 20.32104492 C23.46105721 22.72556278 22.94948132 25.12840722 22.4375 27.53125 C22.0822177 29.21602438 21.72732512 30.90088098 21.37280273 32.58581543 C20.63300629 36.09632612 19.88967499 39.60606243 19.14355469 43.11523438 C18.18635639 47.61777075 17.23635898 52.12178889 16.28874207 56.6263504 C15.55834225 60.09597258 14.82508289 63.56498518 14.09085083 67.03379822 C13.73931062 68.69548716 13.38845741 70.35732158 13.03829956 72.01930237 C12.55044804 74.33182806 12.05896923 76.64355204 11.56640625 78.95507812 C11.42196075 79.64283325 11.27751526 80.33058838 11.12869263 81.03918457 C10.11446983 85.77106033 10.11446983 85.77106033 9 88 C0.09 88 -8.82 88 -18 88 C-17.37817138 81.78171381 -16.73422056 75.96684357 -15.43359375 69.91992188 C-15.27899689 69.18040283 -15.12440002 68.44088379 -14.96511841 67.67895508 C-14.46105721 65.27443722 -13.94948132 62.87159278 -13.4375 60.46875 C-13.0822177 58.78397562 -12.72732512 57.09911902 -12.37280273 55.41418457 C-11.63300629 51.90367388 -10.88967499 48.39393757 -10.14355469 44.88476562 C-9.18635639 40.38222925 -8.23635898 35.87821111 -7.28874207 31.3736496 C-6.55834225 27.90402742 -5.82508289 24.43501482 -5.09085083 20.96620178 C-4.73931062 19.30451284 -4.38845741 17.64267842 -4.03829956 15.98069763 C-3.55044804 13.66817194 -3.05896923 11.35644796 -2.56640625 9.04492188 C-2.42196075 8.35716675 -2.27751526 7.66941162 -2.12869263 6.96081543 C-1.11446983 2.22893967 -1.11446983 2.22893967 0 0 Z " fill="#ffffff" transform="translate(227,79)"/>
<path d="M0 0 C15.84 0 31.68 0 48 0 C47 12 47 12 44 25 C28.16 25 12.32 25 -4 25 C-2.86453577 12.50989346 -2.86453577 12.50989346 -2 7.4375 C-1.835 6.44621094 -1.67 5.45492187 -1.5 4.43359375 C-1 2 -1 2 0 0 Z " fill="#2FA4FF" transform="translate(4,107)"/>
<path d="M0 0 C16.17 0 32.34 0 49 0 C47.8530233 8.02883692 46.5905705 16.04714748 45 24 C28.83 24 12.66 24 -4 24 C-2.68 16.08 -1.36 8.16 0 0 Z " fill="#2FA4FF" transform="translate(11,73)"/>
<path d="M0 0 C3.11106393 2.87175132 4.26174358 4.80103135 4.7734375 9.01953125 C4.85941349 15.71706077 4.57140613 19.88709475 0.4375 25.25 C-4.88775786 30.06809045 -8.42130343 30.7059072 -15.5 30.671875 C-19.54674567 30.11441514 -21.50129682 28.66797394 -24.35546875 25.85546875 C-27.67443708 21.44091864 -27.18360963 15.47588795 -26.5625 10.25 C-24.69900504 5.20268631 -21.51690295 1.25937913 -16.65234375 -1.125 C-10.8496717 -2.86037856 -5.41099561 -2.65803293 0 0 Z " fill="#ffffff" transform="translate(256.5625,41.75)"/>
</svg>
